<svg xmlns="http://www.w3.org/2000/svg" viewBox="0 0 267.31 161.43"><defs><style>.cls-1,.cls-3{fill:#fff;stroke-width:7px;}.cls-1,.cls-2{stroke:#7e1718;}.cls-1,.cls-2,.cls-3,.cls-4{stroke-miterlimit:10;}.cls-2,.cls-4{fill:none;stroke-width:5px;}.cls-3,.cls-4{stroke:#fcc252;}.cls-5{fill:#1d1d1b;}</style></defs><g id="Layer_2" data-name="Layer 2"><g id="Layer_1-2" data-name="Layer 1"><line class="cls-1" x1="265.99" y1="38.34" x2="44.48" y2="38.34"/><line class="cls-1" x1="44.48" y1="3.95" x2="265.99" y2="3.95"/><line class="cls-2" x1="210.1" y1="4" x2="210.1" y2="38.4"/><line class="cls-2" x1="238.07" y1="4" x2="238.07" y2="38.4"/><line class="cls-2" x1="182.12" y1="4" x2="182.12" y2="38.4"/><line class="cls-2" x1="154.15" y1="4" x2="154.15" y2="38.4"/><line class="cls-2" x1="126.17" y1="4" x2="126.17" y2="38.4"/><line class="cls-2" x1="98.2" y1="4" x2="98.2" y2="38.4"/><line class="cls-2" x1="70.22" y1="4" x2="70.22" y2="38.4"/><line class="cls-3" y1="122.65" x2="221.5" y2="122.65"/><line class="cls-3" x1="221.5" y1="157.04" y2="157.04"/><line class="cls-4" x1="165.61" y1="122.7" x2="165.61" y2="157.1"/><line class="cls-4" x1="193.59" y1="122.7" x2="193.59" y2="157.1"/><line class="cls-4" x1="137.64" y1="122.7" x2="137.64" y2="157.1"/><line class="cls-4" x1="109.66" y1="122.7" x2="109.66" y2="157.1"/><line class="cls-4" x1="81.69" y1="122.7" x2="81.69" y2="157.1"/><line class="cls-4" x1="53.71" y1="122.7" x2="53.71" y2="157.1"/><line class="cls-4" x1="25.74" y1="122.7" x2="25.74" y2="157.1"/><line class="cls-1" x1="37.94" x2="37.94" y2="117.81"/><line class="cls-1" x1="3.54" y1="116.28" x2="3.54"/><line class="cls-2" x1="37.88" y1="109.66" x2="3.49" y2="109.66"/><line class="cls-2" x1="37.88" y1="81.69" x2="3.49" y2="81.69"/><line class="cls-2" x1="37.88" y1="53.71" x2="3.49" y2="53.71"/><line class="cls-2" x1="37.88" y1="25.74" x2="3.49" y2="25.74"/><line class="cls-3" x1="229.41" y1="159.9" x2="229.41" y2="43.61"/><line class="cls-3" x1="263.81" y1="43.61" x2="263.81" y2="161.43"/><line class="cls-4" x1="263.75" y1="153.28" x2="229.36" y2="153.28"/><line class="cls-4" x1="263.75" y1="125.3" x2="229.36" y2="125.3"/><line class="cls-4" x1="263.75" y1="97.33" x2="229.36" y2="97.33"/><line class="cls-4" x1="263.75" y1="69.35" x2="229.36" y2="69.35"/><path class="cls-5" d="M132.78,48.22a32.33,32.33,0,1,0,32.33,32.33A32.32,32.32,0,0,0,132.78,48.22Zm-24.28,26a6.58,6.58,0,1,1,6.57,6.57A6.58,6.58,0,0,1,108.5,74.26Zm13.61,28.58a6.57,6.57,0,1,1,6.57-6.57A6.58,6.58,0,0,1,122.11,102.84Zm11-36.3A6.57,6.57,0,1,1,139.69,60,6.57,6.57,0,0,1,133.11,66.54Zm11.32,36.3A6.57,6.57,0,1,1,151,96.27,6.57,6.57,0,0,1,144.43,102.84Zm6.72-22a6.58,6.58,0,1,1,6.57-6.57A6.57,6.57,0,0,1,151.15,80.83Z"/></g></g></svg>